<svg xmlns="http://www.w3.org/2000/svg" id="prefix__kaggle" height="24" width="24"><style>@media (prefers-color-scheme:dark){#prefix__kaggle path{fill:#fff}}@media (prefers-color-scheme:light){#prefix__kaggle path{fill:#000}}</style><path d="M17.992 24h-2.868c-.226 0-.554-.073-.838-.42l-4.403-5.872-.767.764v4.689c0 .501-.331.837-.822.837H6.072c-.492 0-.822-.336-.822-.837V.837c0-.501.33-.837.822-.837h2.223c.492 0 .822.336.822.837v12.487l4.806-5.096c.252-.262.525-.393.814-.393h2.964c.317 0 .592.178.715.465.125.29.073.64-.126.851l-5.693 5.776 5.984 7.794c.047.062.08.134.095.21l.065.338a.505.505 0 01-.005.212c-.061.252-.288.519-.744.519zM6.25 22.999h1.867v-4.734a.5.5 0 01.147-.354l1.321-1.317a.5.5 0 01.753.054l4.735 6.315 2.456.031-5.991-7.803a.5.5 0 01.041-.656l5.618-5.7H14.74c.003.002-.032.019-.094.083L8.98 14.926a.5.5 0 01-.863-.343V1H6.25v21.999zM8.295 1h.004L8.295.5V1z"/></svg>