<svg xmlns="http://www.w3.org/2000/svg" enable-background="new 0 0 24 24" viewBox="0 0 24 24" id="kaggle" height="24" width="24">
  <style>
    /* Dark Mode */
    @media (prefers-color-scheme: dark) {
      #kaggle path {
        fill: white; /* Change the fill color for dark mode */
      }
    }

    /* Light Mode */
    @media (prefers-color-scheme: light) {
      #kaggle path {
        fill: black; /* Change the fill color for light mode */
      }
    }
  </style>
<path d="M17.502,24H14.75c-0.392,0-0.753-0.182-1.018-0.513l-4.043-5.494l-0.436,0.442v4.483c0,0.636-0.436,1.08-1.06,1.08H6.059C5.436,23.999,5,23.555,5,22.919V1.08C5,0.444,5.436,0,6.059,0h2.134c0.624,0,1.06,0.444,1.06,1.08v11.533l4.142-4.476c0.369-0.391,0.738-0.472,0.983-0.472h2.846c0.412,0,0.769,0.232,0.932,0.606c0.167,0.382,0.1,0.83-0.165,1.116l-5.317,5.497l5.614,7.451c0.069,0.092,0.117,0.199,0.138,0.312l0.062,0.331c0.02,0.104,0.017,0.21-0.007,0.312C18.402,23.618,18.1,24,17.502,24z M14.867,22.5h1.666l-5.444-7.225c-0.222-0.295-0.197-0.708,0.06-0.973l4.969-5.137h-1.627l-5.438,5.872c-0.208,0.227-0.535,0.304-0.824,0.189c-0.288-0.112-0.477-0.39-0.477-0.698V1.5H6.5v20.999h1.253v-4.371c0-0.197,0.078-0.386,0.215-0.526l1.268-1.288c0.155-0.157,0.37-0.241,0.588-0.222c0.219,0.016,0.42,0.126,0.55,0.304L14.867,22.5z M8.193,1.5h0.01H8.193z"></path></svg>