<svg xmlns="http://www.w3.org/2000/svg" version="1.1" xmlns:xlink="http://www.w3.org/1999/xlink" xmlns:svgjs="http://svgjs.com/svgjs" width="96.000000pt" height="96.000000pt"><svg version="1.0" xmlns="http://www.w3.org/2000/svg" width="96.000000pt" height="96.000000pt" viewBox="0 0 96.000000 96.000000" preserveAspectRatio="xMidYMid meet">

<g transform="translate(0.000000,96.000000) scale(0.100000,-0.100000)" fill="#000000" stroke="none">
<path d="M222 948 c-19 -19 -17 -921 2 -937 9 -7 38 -11 73 -9 l58 3 3 106 c2
88 6 109 21 123 17 16 23 11 106 -101 49 -65 93 -121 99 -126 6 -4 45 -6 86
-5 62 3 75 6 78 20 2 10 -48 84 -119 178 l-122 161 34 37 c18 20 72 76 119
125 104 107 103 120 -10 125 l-74 3 -105 -112 -106 -112 -5 264 -5 264 -60 3
c-38 2 -65 -2 -73 -10z m98 -292 c0 -145 3 -271 6 -280 3 -9 12 -16 19 -16 6
0 65 56 129 125 116 123 118 125 162 125 24 0 44 -3 44 -7 0 -4 -51 -58 -112
-120 -132 -133 -136 -95 25 -303 l108 -140 -48 0 -48 0 -98 130 c-53 72 -103
130 -111 130 -8 0 -28 -16 -45 -35 -30 -35 -31 -39 -31 -130 l0 -95 -35 0 -35
0 0 440 0 440 35 0 35 0 0 -264z"></path>
</g>
</svg><style>@media (prefers-color-scheme: light) { :root { filter: none; } }
</style></svg>