<?xml version="1.0" encoding="utf-8"?>
<!-- Generator: Adobe Illustrator 16.0.0, SVG Export Plug-In . SVG Version: 6.00 Build 0)  -->
<!DOCTYPE svg PUBLIC "-//W3C//DTD SVG 1.1//EN" "http://www.w3.org/Graphics/SVG/1.1/DTD/svg11.dtd">
<svg version="1.1" id="Layer_1" xmlns="http://www.w3.org/2000/svg" xmlns:xlink="http://www.w3.org/1999/xlink" x="0px" y="0px"
	 width="128px" height="128px" viewBox="0 0 128 128" enable-background="new 0 0 128 128" xml:space="preserve">
<g>
	<g>
		<path fill="#282D33" d="M7.953,106.106h-4.17V11.369h0.199C5.076,4.945,10.785,0,17.537,0h81.898v93.84H17.537
			c-5.372,0-9.742,4.309-9.742,9.604c0,0.111,0.009,0.222,0.017,0.334L7.953,106.106z M7.795,13.992v79.849
			c2.492-2.478,5.939-4.013,9.742-4.013h77.887V4.013H17.537c-5.259,0-9.624,4.219-9.73,9.404L7.795,13.992z"/>
	</g>
	<g>
		<g>
			<path fill="#282D33" d="M99.436,117.061H40.374v-4.013h55.05V93.84H17.537c-5.372,0-9.742,4.308-9.742,9.604
				c0,5.296,4.371,9.604,9.742,9.604h4.778v4.013h-4.778c-7.584,0-13.754-6.108-13.754-13.616s6.17-13.616,13.754-13.616h81.898
				V117.061z"/>
		</g>
	</g>
	<g>
		<path fill="#282D33" d="M124.217,7.551h-4.012V4.013h-8.783v3.538h-4.012V3.014c0-1.69,1.502-3.014,3.416-3.014h9.98
			c1.912,0,3.41,1.323,3.41,3.014V7.551z"/>
	</g>
	<g>
		<polygon fill="#282D33" points="21.372,128 21.372,104.446 25.384,104.446 25.384,120.75 31.898,116.666 38.414,120.75 
			38.414,104.446 42.426,104.446 42.426,128 31.898,121.4 		"/>
	</g>
	<g>
		<rect x="16.662" y="102.101" fill="#282D33" width="80.77" height="4.012"/>
	</g>
	<g>
		<rect x="14.656" y="3.122" fill="#282D33" width="4.012" height="87.992"/>
	</g>
	<g>
		<path fill="#282D33" d="M124.217,77.652h-16.809V12.079h16.809V77.652z M111.42,73.641h8.785v-57.55h-8.785V73.641z"/>
	</g>
	<g>
		<polygon fill="#282D33" points="115.822,99.403 107.428,78.87 107.428,76.511 111.439,76.511 111.439,78.082 115.822,88.802 
			120.205,78.082 120.205,76.511 124.217,76.511 124.217,78.87 		"/>
	</g>
	<g>
		<rect x="38.963" y="42.052" fill="#282D33" width="36.121" height="4.012"/>
	</g>
	<g>
		<rect x="43.2" y="30.811" fill="#282D33" width="27.647" height="4.013"/>
	</g>
</g>
</svg>
